<svg xmlns="http://www.w3.org/2000/svg" width="26.776" height="31" viewBox="0 0 26.776 31">
    <g>
        <path fill="#539e43" d="M13.388 31a2.38 2.38 0 0 1-1.164-.313l-3.687-2.25c-.554-.313-.277-.427-.111-.484a6.628 6.628 0 0 0 1.663-.769.249.249 0 0 1 .277.028l2.827 1.737a.344.344 0 0 0 .333 0l11.06-6.579a.329.329 0 0 0 .166-.313V8.928a.329.329 0 0 0-.166-.313l-11.06-6.55a.344.344 0 0 0-.333 0L2.134 8.615a.36.36 0 0 0-.166.313v13.129a.36.36 0 0 0 .166.313l3.021 1.794c1.635.854 2.661-.142 2.661-1.139V10.068a.342.342 0 0 1 .333-.342h1.414a.342.342 0 0 1 .333.342v12.958c0 2.25-1.192 3.56-3.271 3.56a4.654 4.654 0 0 1-2.55-.712l-2.91-1.709A2.417 2.417 0 0 1 0 22.086V8.957a2.417 2.417 0 0 1 1.164-2.079L12.224.3a2.416 2.416 0 0 1 2.328 0l11.06 6.579a2.417 2.417 0 0 1 1.164 2.079v13.128a2.417 2.417 0 0 1-1.164 2.079l-11.06 6.579a2.773 2.773 0 0 1-1.164.256zm3.412-9.028c-4.851 0-5.849-2.278-5.849-4.215a.342.342 0 0 1 .333-.342h1.441a.288.288 0 0 1 .3.285c.222 1.509.859 2.25 3.8 2.25 2.328 0 3.326-.541 3.326-1.823 0-.74-.277-1.282-3.908-1.652-3.021-.313-4.906-1-4.906-3.475 0-2.307 1.885-3.674 5.045-3.674 3.548 0 5.294 1.253 5.516 3.987a.468.468 0 0 1-.083.256.339.339 0 0 1-.222.114h-1.441a.327.327 0 0 1-.3-.256c-.333-1.566-1.192-2.079-3.465-2.079-2.55 0-2.855.911-2.855 1.595 0 .826.36 1.082 3.8 1.538 3.409.456 5.017 1.111 5.017 3.56-.028 2.506-2.023 3.93-5.544 3.93z" transform="translate(-788.664 -402) translate(788.664 402)"/>
    </g>
</svg>
