<?xml version="1.0" encoding="UTF-8"?> <svg xmlns="http://www.w3.org/2000/svg" xmlns:xlink="http://www.w3.org/1999/xlink" width="248px" height="167px" viewBox="0 0 248 167"><!-- Generator: Sketch 56.2 (81672) - https://sketch.com --><title>polka-dots</title><desc>Created with Sketch.</desc><g id="Page-1" stroke="none" stroke-width="1" fill="none" fill-rule="evenodd"><g id="Co-Workingspace-Homepage" transform="translate(-850.000000, -1889.000000)" fill="#CBCBD8" fill-rule="nonzero"><g id="polka-dots" transform="translate(850.000000, 1889.000000)"><path d="M3,6 C1.34314575,6 0,4.65685425 0,3 C0,1.34314575 1.34314575,0 3,0 C4.65685425,0 6,1.34314575 6,3 C6,4.65685425 4.65685425,6 3,6 Z M29.7857143,6 C28.1288601,6 26.7857143,4.65685425 26.7857143,3 C26.7857143,1.34314575 28.1288601,0 29.7857143,0 C31.4425685,0 32.7857143,1.34314575 32.7857143,3 C32.7857143,4.65685425 31.4425685,6 29.7857143,6 Z M56.5714286,6 C54.9145744,6 53.5714286,4.65685425 53.5714286,3 C53.5714286,1.34314575 54.9145744,0 56.5714286,0 C58.2282828,0 59.5714286,1.34314575 59.5714286,3 C59.5714286,4.65685425 58.2282828,6 56.5714286,6 Z M83.3571429,6 C81.7002887,6 80.3571429,4.65685425 80.3571429,3 C80.3571429,1.34314575 81.7002887,0 83.3571429,0 C85.0139971,0 86.3571429,1.34314575 86.3571429,3 C86.3571429,4.65685425 85.0139971,6 83.3571429,6 Z M110.142857,6 C108.486003,6 107.142857,4.65685425 107.142857,3 C107.142857,1.34314575 108.486003,0 110.142857,0 C111.799711,0 113.142857,1.34314575 113.142857,3 C113.142857,4.65685425 111.799711,6 110.142857,6 Z M136.928571,6 C135.271717,6 133.928571,4.65685425 133.928571,3 C133.928571,1.34314575 135.271717,0 136.928571,0 C138.585425,0 139.928571,1.34314575 139.928571,3 C139.928571,4.65685425 138.585425,6 136.928571,6 Z M163.714286,6 C162.057432,6 160.714286,4.65685425 160.714286,3 C160.714286,1.34314575 162.057432,0 163.714286,0 C165.37114,0 166.714286,1.34314575 166.714286,3 C166.714286,4.65685425 165.37114,6 163.714286,6 Z M190.5,6 C188.843146,6 187.5,4.65685425 187.5,3 C187.5,1.34314575 188.843146,0 190.5,0 C192.156855,0 193.5,1.34314575 193.5,3 C193.5,4.65685425 192.156855,6 190.5,6 Z M217.285714,6 C215.62886,6 214.285714,4.65685425 214.285714,3 C214.285714,1.34314575 215.62886,0 217.285714,0 C218.942568,0 220.285714,1.34314575 220.285714,3 C220.285714,4.65685425 218.942568,6 217.285714,6 Z M244.071429,6 C242.414574,6 241.071429,4.65685425 241.071429,3 C241.071429,1.34314575 242.414574,0 244.071429,0 C245.728283,0 247.071429,1.34314575 247.071429,3 C247.071429,4.65685425 245.728283,6 244.071429,6 Z" id="Shape"></path><path d="M3,33 C1.34314575,33 0,31.6568543 0,30 C0,28.3431457 1.34314575,27 3,27 C4.65685425,27 6,28.3431457 6,30 C6,31.6568543 4.65685425,33 3,33 Z M29.7857143,33 C28.1288601,33 26.7857143,31.6568543 26.7857143,30 C26.7857143,28.3431457 28.1288601,27 29.7857143,27 C31.4425685,27 32.7857143,28.3431457 32.7857143,30 C32.7857143,31.6568543 31.4425685,33 29.7857143,33 Z M56.5714286,33 C54.9145744,33 53.5714286,31.6568543 53.5714286,30 C53.5714286,28.3431457 54.9145744,27 56.5714286,27 C58.2282828,27 59.5714286,28.3431457 59.5714286,30 C59.5714286,31.6568543 58.2282828,33 56.5714286,33 Z M83.3571429,33 C81.7002887,33 80.3571429,31.6568543 80.3571429,30 C80.3571429,28.3431457 81.7002887,27 83.3571429,27 C85.0139971,27 86.3571429,28.3431457 86.3571429,30 C86.3571429,31.6568543 85.0139971,33 83.3571429,33 Z M110.142857,33 C108.486003,33 107.142857,31.6568543 107.142857,30 C107.142857,28.3431457 108.486003,27 110.142857,27 C111.799711,27 113.142857,28.3431457 113.142857,30 C113.142857,31.6568543 111.799711,33 110.142857,33 Z M136.928571,33 C135.271717,33 133.928571,31.6568543 133.928571,30 C133.928571,28.3431457 135.271717,27 136.928571,27 C138.585425,27 139.928571,28.3431457 139.928571,30 C139.928571,31.6568543 138.585425,33 136.928571,33 Z M163.714286,33 C162.057432,33 160.714286,31.6568543 160.714286,30 C160.714286,28.3431457 162.057432,27 163.714286,27 C165.37114,27 166.714286,28.3431457 166.714286,30 C166.714286,31.6568543 165.37114,33 163.714286,33 Z M190.5,33 C188.843146,33 187.5,31.6568543 187.5,30 C187.5,28.3431457 188.843146,27 190.5,27 C192.156855,27 193.5,28.3431457 193.5,30 C193.5,31.6568543 192.156855,33 190.5,33 Z M217.285714,33 C215.62886,33 214.285714,31.6568543 214.285714,30 C214.285714,28.3431457 215.62886,27 217.285714,27 C218.942568,27 220.285714,28.3431457 220.285714,30 C220.285714,31.6568543 218.942568,33 217.285714,33 Z M244.071429,33 C242.414574,33 241.071429,31.6568543 241.071429,30 C241.071429,28.3431457 242.414574,27 244.071429,27 C245.728283,27 247.071429,28.3431457 247.071429,30 C247.071429,31.6568543 245.728283,33 244.071429,33 Z" id="Shape"></path><path d="M3,60 C1.34314575,60 0,58.6568543 0,57 C0,55.3431457 1.34314575,54 3,54 C4.65685425,54 6,55.3431457 6,57 C6,58.6568543 4.65685425,60 3,60 Z M29.7857143,60 C28.1288601,60 26.7857143,58.6568543 26.7857143,57 C26.7857143,55.3431457 28.1288601,54 29.7857143,54 C31.4425685,54 32.7857143,55.3431457 32.7857143,57 C32.7857143,58.6568543 31.4425685,60 29.7857143,60 Z M56.5714286,60 C54.9145744,60 53.5714286,58.6568543 53.5714286,57 C53.5714286,55.3431457 54.9145744,54 56.5714286,54 C58.2282828,54 59.5714286,55.3431457 59.5714286,57 C59.5714286,58.6568543 58.2282828,60 56.5714286,60 Z M83.3571429,60 C81.7002887,60 80.3571429,58.6568543 80.3571429,57 C80.3571429,55.3431457 81.7002887,54 83.3571429,54 C85.0139971,54 86.3571429,55.3431457 86.3571429,57 C86.3571429,58.6568543 85.0139971,60 83.3571429,60 Z M110.142857,60 C108.486003,60 107.142857,58.6568543 107.142857,57 C107.142857,55.3431457 108.486003,54 110.142857,54 C111.799711,54 113.142857,55.3431457 113.142857,57 C113.142857,58.6568543 111.799711,60 110.142857,60 Z M136.928571,60 C135.271717,60 133.928571,58.6568543 133.928571,57 C133.928571,55.3431457 135.271717,54 136.928571,54 C138.585425,54 139.928571,55.3431457 139.928571,57 C139.928571,58.6568543 138.585425,60 136.928571,60 Z M163.714286,60 C162.057432,60 160.714286,58.6568543 160.714286,57 C160.714286,55.3431457 162.057432,54 163.714286,54 C165.37114,54 166.714286,55.3431457 166.714286,57 C166.714286,58.6568543 165.37114,60 163.714286,60 Z M190.5,60 C188.843146,60 187.5,58.6568543 187.5,57 C187.5,55.3431457 188.843146,54 190.5,54 C192.156855,54 193.5,55.3431457 193.5,57 C193.5,58.6568543 192.156855,60 190.5,60 Z M217.285714,60 C215.62886,60 214.285714,58.6568543 214.285714,57 C214.285714,55.3431457 215.62886,54 217.285714,54 C218.942568,54 220.285714,55.3431457 220.285714,57 C220.285714,58.6568543 218.942568,60 217.285714,60 Z M244.071429,60 C242.414574,60 241.071429,58.6568543 241.071429,57 C241.071429,55.3431457 242.414574,54 244.071429,54 C245.728283,54 247.071429,55.3431457 247.071429,57 C247.071429,58.6568543 245.728283,60 244.071429,60 Z" id="Shape"></path><path d="M3,87 C1.34314575,87 0,85.6568543 0,84 C0,82.3431457 1.34314575,81 3,81 C4.65685425,81 6,82.3431457 6,84 C6,85.6568543 4.65685425,87 3,87 Z M29.7857143,87 C28.1288601,87 26.7857143,85.6568543 26.7857143,84 C26.7857143,82.3431457 28.1288601,81 29.7857143,81 C31.4425685,81 32.7857143,82.3431457 32.7857143,84 C32.7857143,85.6568543 31.4425685,87 29.7857143,87 Z M56.5714286,87 C54.9145744,87 53.5714286,85.6568543 53.5714286,84 C53.5714286,82.3431457 54.9145744,81 56.5714286,81 C58.2282828,81 59.5714286,82.3431457 59.5714286,84 C59.5714286,85.6568543 58.2282828,87 56.5714286,87 Z M83.3571429,87 C81.7002887,87 80.3571429,85.6568543 80.3571429,84 C80.3571429,82.3431457 81.7002887,81 83.3571429,81 C85.0139971,81 86.3571429,82.3431457 86.3571429,84 C86.3571429,85.6568543 85.0139971,87 83.3571429,87 Z M110.142857,87 C108.486003,87 107.142857,85.6568543 107.142857,84 C107.142857,82.3431457 108.486003,81 110.142857,81 C111.799711,81 113.142857,82.3431457 113.142857,84 C113.142857,85.6568543 111.799711,87 110.142857,87 Z M136.928571,87 C135.271717,87 133.928571,85.6568543 133.928571,84 C133.928571,82.3431457 135.271717,81 136.928571,81 C138.585425,81 139.928571,82.3431457 139.928571,84 C139.928571,85.6568543 138.585425,87 136.928571,87 Z M163.714286,87 C162.057432,87 160.714286,85.6568543 160.714286,84 C160.714286,82.3431457 162.057432,81 163.714286,81 C165.37114,81 166.714286,82.3431457 166.714286,84 C166.714286,85.6568543 165.37114,87 163.714286,87 Z M190.5,87 C188.843146,87 187.5,85.6568543 187.5,84 C187.5,82.3431457 188.843146,81 190.5,81 C192.156855,81 193.5,82.3431457 193.5,84 C193.5,85.6568543 192.156855,87 190.5,87 Z M217.285714,87 C215.62886,87 214.285714,85.6568543 214.285714,84 C214.285714,82.3431457 215.62886,81 217.285714,81 C218.942568,81 220.285714,82.3431457 220.285714,84 C220.285714,85.6568543 218.942568,87 217.285714,87 Z M244.071429,87 C242.414574,87 241.071429,85.6568543 241.071429,84 C241.071429,82.3431457 242.414574,81 244.071429,81 C245.728283,81 247.071429,82.3431457 247.071429,84 C247.071429,85.6568543 245.728283,87 244.071429,87 Z" id="Shape"></path><path d="M3,113 C1.34314575,113 0,111.656854 0,110 C0,108.343146 1.34314575,107 3,107 C4.65685425,107 6,108.343146 6,110 C6,111.656854 4.65685425,113 3,113 Z M29.7857143,113 C28.1288601,113 26.7857143,111.656854 26.7857143,110 C26.7857143,108.343146 28.1288601,107 29.7857143,107 C31.4425685,107 32.7857143,108.343146 32.7857143,110 C32.7857143,111.656854 31.4425685,113 29.7857143,113 Z M56.5714286,113 C54.9145744,113 53.5714286,111.656854 53.5714286,110 C53.5714286,108.343146 54.9145744,107 56.5714286,107 C58.2282828,107 59.5714286,108.343146 59.5714286,110 C59.5714286,111.656854 58.2282828,113 56.5714286,113 Z M83.3571429,113 C81.7002887,113 80.3571429,111.656854 80.3571429,110 C80.3571429,108.343146 81.7002887,107 83.3571429,107 C85.0139971,107 86.3571429,108.343146 86.3571429,110 C86.3571429,111.656854 85.0139971,113 83.3571429,113 Z M110.142857,113 C108.486003,113 107.142857,111.656854 107.142857,110 C107.142857,108.343146 108.486003,107 110.142857,107 C111.799711,107 113.142857,108.343146 113.142857,110 C113.142857,111.656854 111.799711,113 110.142857,113 Z M136.928571,113 C135.271717,113 133.928571,111.656854 133.928571,110 C133.928571,108.343146 135.271717,107 136.928571,107 C138.585425,107 139.928571,108.343146 139.928571,110 C139.928571,111.656854 138.585425,113 136.928571,113 Z M163.714286,113 C162.057432,113 160.714286,111.656854 160.714286,110 C160.714286,108.343146 162.057432,107 163.714286,107 C165.37114,107 166.714286,108.343146 166.714286,110 C166.714286,111.656854 165.37114,113 163.714286,113 Z M190.5,113 C188.843146,113 187.5,111.656854 187.5,110 C187.5,108.343146 188.843146,107 190.5,107 C192.156855,107 193.5,108.343146 193.5,110 C193.5,111.656854 192.156855,113 190.5,113 Z M217.285714,113 C215.62886,113 214.285714,111.656854 214.285714,110 C214.285714,108.343146 215.62886,107 217.285714,107 C218.942568,107 220.285714,108.343146 220.285714,110 C220.285714,111.656854 218.942568,113 217.285714,113 Z M244.071429,113 C242.414574,113 241.071429,111.656854 241.071429,110 C241.071429,108.343146 242.414574,107 244.071429,107 C245.728283,107 247.071429,108.343146 247.071429,110 C247.071429,111.656854 245.728283,113 244.071429,113 Z" id="Shape"></path><path d="M3,140 C1.34314575,140 0,138.656854 0,137 C0,135.343146 1.34314575,134 3,134 C4.65685425,134 6,135.343146 6,137 C6,138.656854 4.65685425,140 3,140 Z M29.7857143,140 C28.1288601,140 26.7857143,138.656854 26.7857143,137 C26.7857143,135.343146 28.1288601,134 29.7857143,134 C31.4425685,134 32.7857143,135.343146 32.7857143,137 C32.7857143,138.656854 31.4425685,140 29.7857143,140 Z M56.5714286,140 C54.9145744,140 53.5714286,138.656854 53.5714286,137 C53.5714286,135.343146 54.9145744,134 56.5714286,134 C58.2282828,134 59.5714286,135.343146 59.5714286,137 C59.5714286,138.656854 58.2282828,140 56.5714286,140 Z M83.3571429,140 C81.7002887,140 80.3571429,138.656854 80.3571429,137 C80.3571429,135.343146 81.7002887,134 83.3571429,134 C85.0139971,134 86.3571429,135.343146 86.3571429,137 C86.3571429,138.656854 85.0139971,140 83.3571429,140 Z M110.142857,140 C108.486003,140 107.142857,138.656854 107.142857,137 C107.142857,135.343146 108.486003,134 110.142857,134 C111.799711,134 113.142857,135.343146 113.142857,137 C113.142857,138.656854 111.799711,140 110.142857,140 Z M136.928571,140 C135.271717,140 133.928571,138.656854 133.928571,137 C133.928571,135.343146 135.271717,134 136.928571,134 C138.585425,134 139.928571,135.343146 139.928571,137 C139.928571,138.656854 138.585425,140 136.928571,140 Z M163.714286,140 C162.057432,140 160.714286,138.656854 160.714286,137 C160.714286,135.343146 162.057432,134 163.714286,134 C165.37114,134 166.714286,135.343146 166.714286,137 C166.714286,138.656854 165.37114,140 163.714286,140 Z M190.5,140 C188.843146,140 187.5,138.656854 187.5,137 C187.5,135.343146 188.843146,134 190.5,134 C192.156855,134 193.5,135.343146 193.5,137 C193.5,138.656854 192.156855,140 190.5,140 Z M217.285714,140 C215.62886,140 214.285714,138.656854 214.285714,137 C214.285714,135.343146 215.62886,134 217.285714,134 C218.942568,134 220.285714,135.343146 220.285714,137 C220.285714,138.656854 218.942568,140 217.285714,140 Z M244.071429,140 C242.414574,140 241.071429,138.656854 241.071429,137 C241.071429,135.343146 242.414574,134 244.071429,134 C245.728283,134 247.071429,135.343146 247.071429,137 C247.071429,138.656854 245.728283,140 244.071429,140 Z" id="Shape"></path><path d="M3,167 C1.34314575,167 0,165.656854 0,164 C0,162.343146 1.34314575,161 3,161 C4.65685425,161 6,162.343146 6,164 C6,165.656854 4.65685425,167 3,167 Z M29.7857143,167 C28.1288601,167 26.7857143,165.656854 26.7857143,164 C26.7857143,162.343146 28.1288601,161 29.7857143,161 C31.4425685,161 32.7857143,162.343146 32.7857143,164 C32.7857143,165.656854 31.4425685,167 29.7857143,167 Z M56.5714286,167 C54.9145744,167 53.5714286,165.656854 53.5714286,164 C53.5714286,162.343146 54.9145744,161 56.5714286,161 C58.2282828,161 59.5714286,162.343146 59.5714286,164 C59.5714286,165.656854 58.2282828,167 56.5714286,167 Z M83.3571429,167 C81.7002887,167 80.3571429,165.656854 80.3571429,164 C80.3571429,162.343146 81.7002887,161 83.3571429,161 C85.0139971,161 86.3571429,162.343146 86.3571429,164 C86.3571429,165.656854 85.0139971,167 83.3571429,167 Z M110.142857,167 C108.486003,167 107.142857,165.656854 107.142857,164 C107.142857,162.343146 108.486003,161 110.142857,161 C111.799711,161 113.142857,162.343146 113.142857,164 C113.142857,165.656854 111.799711,167 110.142857,167 Z M136.928571,167 C135.271717,167 133.928571,165.656854 133.928571,164 C133.928571,162.343146 135.271717,161 136.928571,161 C138.585425,161 139.928571,162.343146 139.928571,164 C139.928571,165.656854 138.585425,167 136.928571,167 Z M163.714286,167 C162.057432,167 160.714286,165.656854 160.714286,164 C160.714286,162.343146 162.057432,161 163.714286,161 C165.37114,161 166.714286,162.343146 166.714286,164 C166.714286,165.656854 165.37114,167 163.714286,167 Z M190.5,167 C188.843146,167 187.5,165.656854 187.5,164 C187.5,162.343146 188.843146,161 190.5,161 C192.156855,161 193.5,162.343146 193.5,164 C193.5,165.656854 192.156855,167 190.5,167 Z M217.285714,167 C215.62886,167 214.285714,165.656854 214.285714,164 C214.285714,162.343146 215.62886,161 217.285714,161 C218.942568,161 220.285714,162.343146 220.285714,164 C220.285714,165.656854 218.942568,167 217.285714,167 Z M244.071429,167 C242.414574,167 241.071429,165.656854 241.071429,164 C241.071429,162.343146 242.414574,161 244.071429,161 C245.728283,161 247.071429,162.343146 247.071429,164 C247.071429,165.656854 245.728283,167 244.071429,167 Z" id="Shape"></path></g></g></g></svg> 